HIERARCHY
ROOT Hips
{
 OFFSET 0.000000 0.000000 0.000000
 CHANNELS 6 Xposition Yposition Zposition Yrotation Xrotation Zrotation
 JOINT Chest
 {
  OFFSET 0.000000 10.385163 0.011643
  CHANNELS 3 Yrotation Xrotation Zrotation
  JOINT Chest2
  {
   OFFSET 0.000000 11.579334 -0.021150
   CHANNELS 3 Yrotation Xrotation Zrotation
   JOINT Chest3
   {
    OFFSET 0.000000 10.463212 0.000000
    CHANNELS 3 Yrotation Xrotation Zrotation
    JOINT Chest4
    {
     OFFSET 0.000000 10.463212 0.000000
     CHANNELS 3 Yrotation Xrotation Zrotation
     JOINT Neck
     {
      OFFSET 0.000000 14.544862 0.000000
      CHANNELS 3 Yrotation Xrotation Zrotation
      JOINT Head
      {
       OFFSET 0.000000 9.730630 -0.050295
       CHANNELS 3 Yrotation Xrotation Zrotation
       End Site
       {
        OFFSET 0.000000 18.757589 -0.026270
       }
      }
     }
     JOINT RightCollar
     {
      OFFSET -2.985174 8.102313 0.000000
      CHANNELS 3 Yrotation Xrotation Zrotation
      JOINT RightShoulder
      {
       OFFSET -13.558590 0.000000 0.000000
       CHANNELS 3 Yrotation Xrotation Zrotation
       JOINT RightElbow
       {
        OFFSET -28.208579 0.000000 0.000000
        CHANNELS 3 Yrotation Xrotation Zrotation
        JOINT RightWrist
        {
         OFFSET -23.322907 0.000000 0.010349
         CHANNELS 3 Yrotation Xrotation Zrotation
         End Site
         {
          OFFSET -17.603338 0.000000 0.000000
         }
        }
       }
      }
     }
     JOINT LeftCollar
     {
      OFFSET 2.985174 8.102313 0.000000
      CHANNELS 3 Yrotation Xrotation Zrotation
      JOINT LeftShoulder
      {
       OFFSET 13.558590 0.000000 0.000000
       CHANNELS 3 Yrotation Xrotation Zrotation
       JOINT LeftElbow
       {
        OFFSET 28.208579 0.000000 0.000000
        CHANNELS 3 Yrotation Xrotation Zrotation
        JOINT LeftWrist
        {
         OFFSET 23.322907 0.000000 0.010349
         CHANNELS 3 Yrotation Xrotation Zrotation
         End Site
         {
          OFFSET 17.603338 0.000000 0.000000
         }
        }
       }
      }
     }
    }
   }
  }
 }
 JOINT RightHip
 {
  OFFSET -8.341224 -0.057053 -0.005822
  CHANNELS 3 Yrotation Xrotation Zrotation
  JOINT RightKnee
  {
   OFFSET 0.000000 -44.280013 0.005508
   CHANNELS 3 Yrotation Xrotation Zrotation
   JOINT RightAnkle
   {
    OFFSET 0.000000 -43.261728 0.009315
    CHANNELS 3 Yrotation Xrotation Zrotation
    JOINT RightToe
    {
     OFFSET 0.000000 -8.082955 18.257715
     CHANNELS 3 Yrotation Xrotation Zrotation
     End Site
     {
      OFFSET 0.000000 -1.634678 7.189621
     }
    }
   }
  }
 }
 JOINT LeftHip
 {
  OFFSET 8.341224 -0.057053 -0.005822
  CHANNELS 3 Yrotation Xrotation Zrotation
  JOINT LeftKnee
  {
   OFFSET 0.000000 -44.280013 0.005508
   CHANNELS 3 Yrotation Xrotation Zrotation
   JOINT LeftAnkle
   {
    OFFSET 0.000000 -43.261728 0.009315
    CHANNELS 3 Yrotation Xrotation Zrotation
    JOINT LeftToe
    {
     OFFSET 0.000000 -8.082955 18.257715
     CHANNELS 3 Yrotation Xrotation Zrotation
     End Site
     {
      OFFSET 0.000000 -1.634678 7.189621
     }
    }
   }
  }
 }
}
MOTION
Frames: 8
Frame Time: 0.016667
0.000000 95.489079 0.000000 0.000000 -5.826342 0.000000 0.000000 11.116423 0.000000 0.000000 -5.290081 0.000000 0.000000 0.000000 0.000000 0.000000 0.000000 0.000000 0.000000 12.665069 0.000000 0.000000 0.575450 0.000000 0.000000 0.000000 0.000000 0.000000 0.000000 0.000000 2.337306 0.000000 0.000000 -2.337306 0.000000 0.000000 0.000000 0.000000 0.000000 0.000000 0.000000 0.000000 -2.337306 0.000000 0.000000 2.337306 0.000000 0.000000 0.000000 8.578828 0.000000 0.000000 1.905768 0.000000 0.000000 -4.658254 0.000000 0.000000 0.000000 0.000000 0.000000 8.578828 0.000000 0.000000 1.905768 0.000000 0.000000 -4.658254 0.000000 0.000000 0.000000 0.000000
-253.874937 97.527621 -261.154778 97.896254 -17.441762 0.667477 -1.285286 9.820439 3.658505 -0.646785 4.354453 1.647134 -0.646801 4.354450 1.647132 -0.496638 3.264126 1.239371 2.807256 13.140535 -1.956414 6.121133 -11.613807 -4.854424 -0.184431 -3.700538 3.927320 -5.000075 -6.524021 74.901084 -1.389543 20.829579 -2.139177 0.556694 -0.299243 1.769995 -4.275560 -6.703471 -13.985197 6.872212 -5.139375 -73.234640 -13.358196 15.185208 -8.019350 1.161573 -3.947001 -1.052472 -13.403921 21.642858 -3.794953 -1.549701 -1.634874 0.498271 -8.428917 -5.187009 3.101213 0.000000 -0.000000 0.000000 5.757728 18.351754 2.069908 1.585587 0.273791 0.068052 4.489557 -2.318292 -4.472393 0.000000 0.000000 0.000000
-253.806615 97.534603 -261.151404 97.431004 -17.320044 0.707428 -1.267264 9.748512 3.638921 -0.637843 4.322685 1.637975 -0.637855 4.322684 1.637974 -0.489781 3.240335 1.232419 2.955815 13.241307 -1.897120 6.371364 -11.420896 -4.794827 -0.207492 -3.672604 3.895154 -4.758162 -6.949520 74.800756 -1.026940 20.390984 -2.210950 1.014713 -0.434814 1.145866 -4.373026 -6.745342 -13.981165 6.724533 -5.046126 -73.213067 -11.760311 16.106000 -7.120945 1.812886 -3.595235 -1.765952 -12.884337 21.521903 -3.680907 -1.654217 -1.631288 0.623632 -8.338444 -5.185933 3.001798 -0.000000 -0.000000 -0.000000 5.645810 18.365148 1.933579 1.969234 0.179412 0.161177 4.660284 -2.333852 -4.540569 0.000000 -0.000000 0.000000
-253.735425 97.540244 -261.133306 97.002183 -17.225626 0.741596 -1.235622 9.690340 3.607735 -0.622725 4.297163 1.623416 -0.622725 4.297163 1.623416 -0.478262 3.221250 1.221378 3.075653 13.326873 -1.824409 6.562767 -11.259182 -4.699140 -0.242225 -3.666015 3.871215 -4.573743 -7.336196 74.705094 -0.601293 19.843708 -2.187409 1.471041 -0.585728 0.519355 -4.450211 -6.783306 -13.978696 6.610550 -4.948326 -73.240843 -10.178115 16.945294 -6.119882 2.497892 -3.180818 -2.431774 -12.426375 21.439162 -3.564094 -1.726225 -1.629295 0.701929 -8.261540 -5.184857 2.926091 0.000000 0.000000 0.000000 5.614599 18.400175 1.855426 2.296691 0.087091 0.229484 4.777488 -2.345983 -4.602916 0.000000 0.000000 0.000000
-253.657617 97.544089 -261.086394 96.605523 -17.184199 0.769431 -1.178732 9.659019 3.557655 -0.596249 4.283805 1.600005 -0.596245 4.283802 1.600004 -0.458210 3.211320 1.203630 3.156802 13.390554 -1.727833 6.672948 -11.142597 -4.544334 -0.299632 -3.693085 3.862785 -4.470808 -7.676235 74.620627 -0.087861 19.097568 -2.030965 1.945289 -0.764083 -0.142271 -4.499072 -6.816234 -13.979127 6.534020 -4.852740 -73.343814 -8.603347 17.751325 -4.921595 3.332157 -2.631736 -3.074037 -11.996415 21.431207 -3.410414 -1.783749 -1.630359 0.689427 -8.208934 -5.182872 2.892056 0.000000 0.000000 0.000000 5.728704 18.484431 1.880891 2.547874 -0.004173 0.252413 4.806269 -2.351303 -4.658386 0.000000 -0.000000 0.000000
-253.576940 97.546594 -261.024758 96.244928 -17.170239 0.792452 -1.108168 9.641222 3.495545 -0.563581 4.276584 1.571005 -0.563580 4.276579 1.571005 -0.433503 3.206012 1.181657 3.209371 13.438966 -1.617732 6.724828 -11.057352 -4.353685 -0.368882 -3.741090 3.862991 -4.426075 -7.977378 74.540235 0.477452 18.236758 -1.788482 2.424001 -0.954462 -0.804558 -4.527706 -6.845195 -13.981234 6.491144 -4.753527 -73.495483 -7.042733 18.462897 -3.612487 4.203195 -2.019306 -3.656731 -11.627225 21.462106 -3.252789 -1.808725 -1.633309 0.629937 -8.169920 -5.181038 2.881692 0.000000 0.000000 0.000000 5.924034 18.591438 1.964216 2.742980 -0.093205 0.250608 4.781500 -2.353381 -4.707955 0.000000 0.000000 0.000000
-253.501773 97.547788 -260.975945 95.968705 -17.134659 0.808982 -1.045117 9.611339 3.430425 -0.534092 4.263933 1.540822 -0.534092 4.263933 1.540822 -0.411155 3.196631 1.158816 3.234868 13.476437 -1.511626 6.727981 -10.993921 -4.160642 -0.428885 -3.793601 3.859149 -4.426524 -8.223696 74.445694 1.068307 17.412571 -1.485855 2.842707 -1.142362 -1.375417 -4.540035 -6.869546 -13.982989 6.504085 -4.627821 -73.665352 -5.584375 18.868278 -2.385501 4.844046 -1.546945 -4.044333 -11.479438 21.463520 -3.188050 -1.714382 -1.635912 0.607747 -8.125962 -5.182482 2.864716 0.000000 0.000000 0.000000 6.088244 18.663435 2.026429 2.886224 -0.174872 0.261791 4.754334 -2.359373 -4.748768 0.000000 0.000000 0.000000
-253.435348 97.547460 -260.955207 95.810445 -17.055162 0.816308 -1.006232 9.556979 3.364975 -0.515132 4.240208 1.510974 -0.515132 4.240210 1.510973 -0.396676 3.178911 1.136293 3.230612 13.501617 -1.415137 6.679649 -10.954474 -3.974842 -0.471135 -3.853342 3.843895 -4.482095 -8.402813 74.319078 1.707134 16.646788 -1.098917 3.161463 -1.339436 -1.822919 -4.535019 -6.888195 -13.983744 6.597871 -4.460453 -73.864212 -4.265422 18.869146 -1.295075 5.145848 -1.323243 -4.151583 -11.711463 21.405013 -3.296577 -1.404291 -1.642428 0.670998 -8.058227 -5.184926 2.827035 -0.000000 -0.000000 0.000000 6.179477 18.676260 2.035283 2.965164 -0.251778 0.302860 4.741775 -2.373518 -4.777846 0.000000 -0.000000 -0.000000
